# xmcd CD database file
#
# Track frame offsets:
#	150
#	17398
#	31676
#	46182
#	62307
#	76935
#	94447
#	111366
#	125421
#	141753
#	157372
#	174016
#	187700
#	205862
#	221083
#	235740
#	251308
#	267215
#	281955
#	297938
#
# Disc length: 4180 seconds
#
# Revision: 0
# Processed by: cddbd v1.5.2PL0 Copyright (c) Steve Scherf et al.
# Submitted via: CDex 1.51
#
DISCID=11105214
DTITLE=Update-Media-Group präsentiert: - News 2006
DYEAR=2006
DGENRE=New Age
TTITLE0=2JAM feat. MC Junior JC - Jeans On (Radio-Mix)
TTITLE1=Lollies - Wenn Du denkst Du denkst, dann denkst Du nur Du denkst
TTITLE2=NDC - I Don't Like Mondays
TTITLE3=Reiner Irrsinn - Eine weisse Rose (Jenny Mix)
TTITLE4=George le Bonsai - Ich und Du Rendezvous
TTITLE5=MU2 - In The Year 2525
TTITLE6=Mascara Massacre - Shoot Your Shot (SingleCut)
TTITLE7=Lollies - Mamy Blue
TTITLE8=Peter Markus - Wer küssen will...
TTITLE9=Flammenmeer - Stimmen im Wind
TTITLE10=George le Bonsai - Ich bin Tarzan
TTITLE11=N-Flame - I Won't Let The Sun Go Down On Me
TTITLE12=Maria Vasini - Sur Le Pont
TTITLE13=Partystars United - Gute Freunde kann niemand trennen
TTITLE14=Schnecke and Co. - Lili Marleen
TTITLE15=Chris Marlow - Ab in die Sonne
TTITLE16=X-Plosive - Vogelwiese (PartyMix)
TTITLE17=Bergmann Lauster - Glück auf (Wir sind gut drauf)
TTITLE18=Dani and die Wahnsinnskrainer - Wahnsinn (Oberkrainer-Mix)
TTITLE19=Die Palmenwedler - Im Krug zum rosa Kranze
EXTD=YEAR: 2006
EXTT0=
EXTT1=
EXTT2=
EXTT3=
EXTT4=
EXTT5=
EXTT6=
EXTT7=
EXTT8=
EXTT9=
EXTT10=
EXTT11=
EXTT12=
EXTT13=
EXTT14=
EXTT15=
EXTT16=
EXTT17=
EXTT18=
EXTT19=
PLAYORDER=
